<?xml version="1.0" encoding="utf-8"?>
<!-- Generator: Adobe Illustrator 24.0.2, SVG Export Plug-In . SVG Version: 6.00 Build 0)  -->
<svg version="1.1" id="Capa_1" xmlns="http://www.w3.org/2000/svg" xmlns:xlink="http://www.w3.org/1999/xlink" x="0px" y="0px"
	 viewBox="0 0 400 577.8" style="enable-background:new 0 0 400 577.8;" xml:space="preserve">
<path d="M218.8,0c11.6,2.7,23.4,4.7,34.8,8.1c67,19.6,108.4,64.8,127.1,130.9c19.5,69,27,138.9,9.2,209.8
	c-7.3,29.1-21.5,55.2-37.4,80c-19.6,30.6-40.1,60.9-62.2,89.7c-12,15.6-27.2,29.2-42.8,41.3c-10.7,8.2-24.7,12.2-37.1,18.1
	c-6.8,0-13.7,0-20.5,0c-37-10-62.8-35.1-84.1-64.8c-24.5-34.2-48.2-69.1-69.9-105C1.7,351.8-4.5,289.8,2.7,225.9
	C7,187.1,13.9,148.9,29,112.5C56.6,46,108.5,12.6,177.2,1.5c1.9-0.3,3.8-1,5.7-1.5C194.9,0,206.9,0,218.8,0z M180.8,454.5
	c-9.1-35.5-21.3-69.1-43.1-98.3c-27.8-37.4-67-52.4-112-55.6C14.8,381.9,105.6,472.4,180.8,454.5z M374.1,300.2
	c-5.8,0.8-11.2,1.7-16.5,2.4c-42.6,5.8-77.7,24.6-100.5,61.6c-11.4,18.5-19.6,39-28.4,59c-4.4,10-6.6,20.8-9.9,31.4
	C296,471.1,385.8,381.4,374.1,300.2z"/>
</svg>
